<svg width="27" height="31" viewBox="0 0 27 31" fill="none" xmlns="http://www.w3.org/2000/svg">
<path d="M9.11664 30.4962C4.30957 30.4707 0.333252 21.41 0.333252 16.7956C0.333252 9.25808 6.45714 7.6079 8.81725 7.6079C9.88084 7.6079 11.0165 7.99356 12.0183 8.33484C12.7187 8.5729 13.4432 8.81865 13.8461 8.81865C14.0873 8.81865 14.6556 8.6096 15.1574 8.42617C16.2275 8.03282 17.5591 7.54395 19.1097 7.54395C19.1124 7.54395 19.1162 7.54395 19.1189 7.54395C20.2767 7.54395 23.7874 7.77857 25.898 10.7052L26.3924 11.3912L25.6808 11.8869C24.6644 12.5951 22.8097 13.887 22.8097 16.4459C22.8097 19.4766 24.9101 20.6421 25.9192 21.2027C26.3647 21.4501 26.8257 21.7053 26.8257 22.2633C26.8257 22.6276 23.6765 30.451 19.1032 30.451C17.9841 30.451 17.1931 30.1404 16.4954 29.8666C15.7894 29.5892 15.1804 29.3504 14.1741 29.3504C13.664 29.3504 13.019 29.573 12.3361 29.8094C11.4029 30.131 10.3466 30.4962 9.14806 30.4962H9.11664Z" fill="white"/>
<path d="M19.5942 0.673584C19.7133 4.6389 16.642 7.38985 13.5744 7.21731C13.0689 4.05286 16.6416 0.673584 19.5942 0.673584Z" fill="white"/>
</svg>
