<svg width="41" height="39" viewBox="0 0 41 39" fill="none" xmlns="http://www.w3.org/2000/svg">
<g clip-path="url(#clip0_2_33)">
<path d="M23.5476 19.4522L3.27283 37.4788C2.32339 36.8797 1.75969 35.8832 1.76966 34.8214V4.08296C1.75969 3.0212 2.32339 2.02465 3.27283 1.42554L23.5476 19.4522Z" fill="#2196F3"/>
<path d="M30.642 13.1557L23.5476 19.4523L3.27286 1.42566C3.34925 1.371 3.42882 1.32014 3.51114 1.27333C4.58268 0.673654 5.92113 0.654295 7.01252 1.22255L30.642 13.1557Z" fill="#4CAF50"/>
<path d="M39.2396 19.4524C39.2528 20.651 38.5474 21.7582 37.4064 22.3299L30.642 25.749L23.5477 19.4524L30.642 13.1558L37.4064 16.5749C38.5474 17.1466 39.2528 18.2538 39.2396 19.4524Z" fill="#F0BB1F"/>
<path d="M30.642 25.749L7.01252 37.6822C5.91872 38.2416 4.58535 38.2222 3.51114 37.6314C3.42882 37.5846 3.34925 37.5337 3.27286 37.479L23.5477 19.4524L30.642 25.749Z" fill="#F15A2B"/>
</g>
<defs>
<clipPath id="clip0_2_33">
<rect width="40.3738" height="37.2789" fill="white" transform="translate(0.317749 0.80957)"/>
</clipPath>
</defs>
</svg>
